<svg xmlns="http://www.w3.org/2000/svg" xmlns:xlink="http://www.w3.org/1999/xlink" width="117.87" height="191.222" viewBox="0 0 117.87 191.222">
  <defs>
    <clipPath id="clip-path">
      <path id="Trazado_31" data-name="Trazado 31" d="M70.727,179.513h-30.5a17.457,17.457,0,0,0,5.678,6.165v33.11H65.049v-33.11A17.448,17.448,0,0,0,70.727,179.513Z" fill="#ed696b"/>
    </clipPath>
    <clipPath id="clip-path-2">
      <path id="Trazado_33" data-name="Trazado 33" d="M147.7,196.913l.309-43.252s-7.533,4.6-6.133,10.834c.672,2.989,1.777,4.991-.3,7.481s-3.043,4.1-2.836,7.009,3.548,3.861,3.133,7.18-2.541,5.78-2.164,7.8a9.311,9.311,0,0,0,4.771,6.431Z" fill="#525c6f"/>
    </clipPath>
    <clipPath id="clip-path-3">
      <path id="Trazado_36" data-name="Trazado 36" d="M119.332,196.58l.339-47.394s-8.254,5.044-6.72,11.872c.736,3.275,1.947,5.469-.326,8.2s-3.334,4.5-3.107,7.68,3.888,4.231,3.433,7.867-2.785,6.334-2.371,8.545a10.2,10.2,0,0,0,5.228,7.047Z" fill="#525c6f"/>
    </clipPath>
    <clipPath id="clip-path-4">
      <path id="Trazado_51" data-name="Trazado 51" d="M85.043,85.942h20.526l2.562-30.409a4.67,4.67,0,0,0-4.654-5.062H87.134a4.669,4.669,0,0,0-4.653,5.062Z" fill="none"/>
    </clipPath>
    <clipPath id="clip-path-5">
      <path id="Trazado_59" data-name="Trazado 59" d="M135.268,197.76V141.066s-9.563,5.843-7.786,13.755c.852,3.793,2.256,6.336-.377,9.5s-3.864,5.212-3.6,8.9,4.5,4.9,3.977,9.114-4.591,8.057-2.747,9.9,6.056,8.164,6.056,8.164Z" fill="none"/>
    </clipPath>
  </defs>
  <g id="Grupo_365" data-name="Grupo 365" transform="translate(-30.327 -28.058)">
    <g id="Grupo_307" data-name="Grupo 307">
      <g id="Grupo_306" data-name="Grupo 306">
        <rect id="Rectángulo_144" data-name="Rectángulo 144" width="1.989" height="48.224" transform="translate(56.72 140.238)" fill="#ccc"/>
      </g>
    </g>
    <g id="Grupo_309" data-name="Grupo 309">
      <g id="Grupo_308" data-name="Grupo 308">
        <rect id="Rectángulo_145" data-name="Rectángulo 145" width="1.989" height="48.224" transform="translate(47.771 145.209)" fill="#ccc"/>
      </g>
    </g>
    <g id="Grupo_311" data-name="Grupo 311">
      <g id="Grupo_310" data-name="Grupo 310">
        <rect id="Rectángulo_146" data-name="Rectángulo 146" width="1.988" height="48.224" transform="translate(66.166 148.689)" fill="#ccc"/>
      </g>
    </g>
    <g id="Grupo_314" data-name="Grupo 314">
      <path id="Trazado_30" data-name="Trazado 30" d="M70.727,179.513h-30.5a17.457,17.457,0,0,0,5.678,6.165v33.11H65.049v-33.11A17.448,17.448,0,0,0,70.727,179.513Z" fill="#ed696b"/>
      <g id="Grupo_313" data-name="Grupo 313" clip-path="url(#clip-path)">
        <g id="Grupo_312" data-name="Grupo 312">
          <rect id="Rectángulo_147" data-name="Rectángulo 147" width="37.038" height="0.382" transform="translate(42.8 185.785)" fill="#ffc1c1"/>
        </g>
      </g>
    </g>
    <g id="Grupo_320" data-name="Grupo 320">
      <g id="Grupo_319" data-name="Grupo 319">
        <path id="Trazado_32" data-name="Trazado 32" d="M147.7,196.913l.309-43.252s-7.533,4.6-6.133,10.834c.672,2.989,1.777,4.991-.3,7.481s-3.043,4.1-2.836,7.009,3.548,3.861,3.133,7.18-2.541,5.78-2.164,7.8a9.311,9.311,0,0,0,4.771,6.431Z" fill="#525c6f"/>
        <g id="Grupo_318" data-name="Grupo 318" clip-path="url(#clip-path-2)">
          <g id="Grupo_315" data-name="Grupo 315">
            <rect id="Rectángulo_148" data-name="Rectángulo 148" width="10.274" height="0.382" transform="translate(145.048 162.75)" fill="#8ea8dd"/>
          </g>
          <g id="Grupo_316" data-name="Grupo 316">
            <rect id="Rectángulo_149" data-name="Rectángulo 149" width="10.274" height="0.382" transform="translate(143.391 177.333)" fill="#8ea8dd"/>
          </g>
          <g id="Grupo_317" data-name="Grupo 317">
            <rect id="Rectángulo_150" data-name="Rectángulo 150" width="10.275" height="0.382" transform="translate(144.054 193.242)" fill="#8ea8dd"/>
          </g>
        </g>
      </g>
    </g>
    <g id="Grupo_323" data-name="Grupo 323">
      <g id="Grupo_322" data-name="Grupo 322">
        <g id="Grupo_321" data-name="Grupo 321">
          <path id="Trazado_34" data-name="Trazado 34" d="M67.326,122.506c-3.48-7.458-14.523-8.515-19.389.828-4.143,7.955-13.983,5.158-16.738,12.6-4.971,13.423,12.6,18.569,20.052,11.6,5.138-4.806,11.679-1.946,17.4,2.652,9.28,7.457,23.7-8.452,14.583-15.909C76.161,128.484,71.614,131.694,67.326,122.506Z" fill="#525c6f"/>
        </g>
      </g>
    </g>
    <g id="Grupo_328" data-name="Grupo 328">
      <g id="Grupo_327" data-name="Grupo 327">
        <path id="Trazado_35" data-name="Trazado 35" d="M119.332,196.58l.339-47.394s-8.254,5.044-6.72,11.872c.736,3.275,1.947,5.469-.326,8.2s-3.334,4.5-3.107,7.68,3.888,4.231,3.433,7.867-2.785,6.334-2.371,8.545a10.2,10.2,0,0,0,5.228,7.047Z" fill="#525c6f"/>
        <g id="Grupo_326" data-name="Grupo 326" clip-path="url(#clip-path-3)">
          <g id="Grupo_324" data-name="Grupo 324">
            <rect id="Rectángulo_151" data-name="Rectángulo 151" width="11.259" height="0.382" transform="translate(116.427 159.164)" fill="#8ea8dd"/>
          </g>
          <g id="Grupo_325" data-name="Grupo 325">
            <rect id="Rectángulo_152" data-name="Rectángulo 152" width="11.258" height="0.382" transform="translate(115.337 192.576)" fill="#8ea8dd"/>
          </g>
        </g>
      </g>
    </g>
    <g id="Grupo_329" data-name="Grupo 329">
      <path id="Trazado_37" data-name="Trazado 37" d="M135.268,197.76V141.066s-9.563,5.843-7.786,13.755c.852,3.793,2.256,6.336-.377,9.5s-3.864,5.212-3.6,8.9,4.5,4.9,3.977,9.114-4.591,8.057-2.747,9.9,6.056,8.164,6.056,8.164Z" fill="#525c6f"/>
    </g>
    <g id="Grupo_330" data-name="Grupo 330">
      <path id="Trazado_38" data-name="Trazado 38" d="M127.6,196.433h20.6l-3.923,22.558h-12.75Z" fill="#525c6f"/>
    </g>
    <g id="Grupo_332" data-name="Grupo 332">
      <g id="Grupo_331" data-name="Grupo 331">
        <path id="Trazado_39" data-name="Trazado 39" d="M98.671,158.137c0-9.46,21.659-5.821,28.381-32.747,5.431-21.75-.727-24.015-.727-24.015H62.113s-6.577,2.374-.728,24.015c7.277,26.926,28.381,23.287,28.381,32.747,0,12.372-20.376,5.822-28.381,32.748-6.389,21.488.728,24.015.728,24.015h64.212s6.157-2.265.727-24.015C121.058,166.87,98.671,170.509,98.671,158.137Z" fill="#a4b8ea"/>
      </g>
    </g>
    <g id="Grupo_333" data-name="Grupo 333">
      <path id="Trazado_40" data-name="Trazado 40" d="M128.562,113.685H59.451c-3.772,0-6.831-2.594-6.831-5.792v-4.77c0-3.2,3.059-5.792,6.831-5.792h69.111c3.773,0,6.831,2.593,6.831,5.792v4.77C135.393,111.091,132.335,113.685,128.562,113.685Z" fill="#8ea8dd"/>
    </g>
    <g id="Grupo_334" data-name="Grupo 334">
      <path id="Trazado_41" data-name="Trazado 41" d="M112.542,85.688H85.036v6.6c0,3.573,2.244,5.181,5.817,5.181h21.036c3.574,0,7.123-1.608,7.123-5.181v-.131A6.47,6.47,0,0,0,112.542,85.688Z" fill="#525c6f"/>
    </g>
    <g id="Grupo_337" data-name="Grupo 337">
      <g id="Grupo_336" data-name="Grupo 336">
        <g id="Grupo_335" data-name="Grupo 335">
          <path id="Trazado_42" data-name="Trazado 42" d="M118.725,91.292l3.277,37.2H117.02s-6.98-22.334-7.777-30.3,3.99-8.8,3.99-8.8Z" fill="#525c6f"/>
        </g>
      </g>
    </g>
    <g id="Grupo_338" data-name="Grupo 338">
      <path id="Trazado_43" data-name="Trazado 43" d="M102.871,90.788l3.388,37.7h-4.982s-7.328-24.2-8.125-32.173,4.339-6.927,4.339-6.927Z" fill="#525c6f"/>
    </g>
    <g id="Grupo_339" data-name="Grupo 339">
      <path id="Trazado_44" data-name="Trazado 44" d="M121.9,128.493H117.02v3.744h9.9c.653,0,.878-1.468.306-1.784Z" fill="#ed696b"/>
    </g>
    <g id="Grupo_340" data-name="Grupo 340">
      <path id="Trazado_45" data-name="Trazado 45" d="M106.259,128.493h-4.883v3.744h9.9c.654,0,.879-1.468.307-1.784Z" fill="#ed696b"/>
    </g>
    <g id="Grupo_341" data-name="Grupo 341">
      <path id="Trazado_46" data-name="Trazado 46" d="M85.043,85.942h20.526l2.562-30.409a4.67,4.67,0,0,0-4.654-5.062H87.134a4.669,4.669,0,0,0-4.653,5.062Z" fill="#525c6f"/>
    </g>
    <g id="Grupo_342" data-name="Grupo 342">
      <path id="Trazado_47" data-name="Trazado 47" d="M94.011,52.364H97.2a1.917,1.917,0,0,0,1.793-2.021V46.414A1.918,1.918,0,0,0,97.2,44.393H94.011a1.918,1.918,0,0,0-1.794,2.021v3.929A1.917,1.917,0,0,0,94.011,52.364Z" fill="#e98896"/>
    </g>
    <g id="Grupo_343" data-name="Grupo 343">
      <path id="Trazado_48" data-name="Trazado 48" d="M103.254,44.388c-1.281,4.333-4.9,3.67-9.239,2.389a8.182,8.182,0,1,1,4.638-15.694C102.987,32.364,104.534,40.054,103.254,44.388Z" fill="#ffb3b6"/>
    </g>
    <g id="Grupo_344" data-name="Grupo 344">
      <path id="Trazado_49" data-name="Trazado 49" d="M107.661,53.261,117.4,70.012l-7.579,3.216-6.034-9.913Z" fill="#525c6f"/>
    </g>
    <g id="Grupo_345" data-name="Grupo 345">
      <path id="Trazado_50" data-name="Trazado 50" d="M82.572,51.247a38.076,38.076,0,0,0-11.727,19.3c-.594,1.271-.137,3.3,1.195,3.737l18.606,9.287,2.591-4.384L80.211,69.269l9.57-10.316-.5-8.452S84,50,82.572,51.247Z" fill="#525c6f"/>
    </g>
    <g id="Grupo_349" data-name="Grupo 349">
      <g id="Grupo_348" data-name="Grupo 348" clip-path="url(#clip-path-4)">
        <g id="Grupo_346" data-name="Grupo 346">
          <rect id="Rectángulo_153" data-name="Rectángulo 153" width="0.382" height="15.245" transform="matrix(0.698, -0.716, 0.716, 0.698, 82.393, 70.271)" fill="#8ea8dd"/>
        </g>
        <g id="Grupo_347" data-name="Grupo 347">
          <rect id="Rectángulo_154" data-name="Rectángulo 154" width="0.382" height="14.122" transform="translate(79.136 78.03) rotate(-62.262)" fill="#8ea8dd"/>
        </g>
      </g>
    </g>
    <g id="Grupo_350" data-name="Grupo 350">
      <rect id="Rectángulo_155" data-name="Rectángulo 155" width="32.039" height="2.715" transform="translate(90.009 83.441)" fill="#ccc"/>
    </g>
    <g id="Grupo_351" data-name="Grupo 351">
      <path id="Trazado_52" data-name="Trazado 52" d="M90.305,83.519h8.171l.6-3.587H92.906a2.363,2.363,0,0,0-2.332,1.975Z" fill="#ffb3b6"/>
    </g>
    <g id="Grupo_352" data-name="Grupo 352">
      <path id="Trazado_53" data-name="Trazado 53" d="M96.3,83.554h25.726l3.53-15.929H99.829Z" fill="#ccc"/>
    </g>
    <g id="Grupo_353" data-name="Grupo 353">
      <path id="Trazado_54" data-name="Trazado 54" d="M109.737,76.018a1.694,1.694,0,1,0,1.694-1.694A1.695,1.695,0,0,0,109.737,76.018Z" fill="#8ea8dd"/>
    </g>
    <g id="Grupo_354" data-name="Grupo 354">
      <path id="Trazado_55" data-name="Trazado 55" d="M64.012,203.873c-.829-2.32,2.4-14.127,3.4-16.281s24.609-16.531,26.432-16.365,24.319,12.015,27.136,16.986,3.356,15.66,3.356,15.66Z" fill="#ffc1c1"/>
    </g>
    <g id="Grupo_355" data-name="Grupo 355">
      <path id="Trazado_56" data-name="Trazado 56" d="M128.562,219.28H59.451c-3.772,0-6.831-2.592-6.831-5.791v-4.77c0-3.2,3.059-5.792,6.831-5.792h69.111c3.773,0,6.831,2.593,6.831,5.792v4.77C135.393,216.688,132.335,219.28,128.562,219.28Z" fill="#8ea8dd"/>
    </g>
    <g id="Grupo_356" data-name="Grupo 356">
      <path id="Trazado_57" data-name="Trazado 57" d="M94.255,151.423c-1.118,0-9.694-4.722-14.541-8.2s-3.729-4.972-1.865-5.594,34.925-.372,36.293.995-6.339,5.966-9.695,8.327C101.991,148.678,96.368,151.423,94.255,151.423Z" fill="#ffc1c1"/>
    </g>
    <g id="Grupo_357" data-name="Grupo 357">
      <path id="Trazado_58" data-name="Trazado 58" d="M90.589,44.97c.467.428,2.3-.17,1.18-1.491-1.367-1.616-2.61-4.413-.372-4.91s1.615,2.175,2.61,2.175.124-3.542.5-5.531,5.469-1.74,7.954-2.112,2.8-5.718-3.6-4.972c-4.312.5-7.457,1.8-10.192,5.9C86.593,37.137,87.606,42.236,90.589,44.97Z" fill="#03053f"/>
    </g>
    <g id="Grupo_362" data-name="Grupo 362">
      <g id="Grupo_361" data-name="Grupo 361" clip-path="url(#clip-path-5)">
        <g id="Grupo_358" data-name="Grupo 358">
          <rect id="Rectángulo_156" data-name="Rectángulo 156" width="10.275" height="0.382" transform="translate(130.962 153.967)" fill="#8ea8dd"/>
        </g>
        <g id="Grupo_359" data-name="Grupo 359">
          <rect id="Rectángulo_157" data-name="Rectángulo 157" width="10.275" height="0.382" transform="translate(128.311 171.699)" fill="#8ea8dd"/>
        </g>
        <g id="Grupo_360" data-name="Grupo 360">
          <rect id="Rectángulo_158" data-name="Rectángulo 158" width="10.275" height="0.382" transform="translate(130.962 189.596)" fill="#8ea8dd"/>
        </g>
      </g>
    </g>
    <g id="Grupo_363" data-name="Grupo 363">
      <path id="Trazado_60" data-name="Trazado 60" d="M42.078,163.275c-1.625,1.361.416,4.989,4.491,4.24s6.153-2.661,3.908-4.739S45.155,160.7,42.078,163.275Z" fill="#525c6f"/>
    </g>
    <g id="Grupo_364" data-name="Grupo 364">
      <path id="Trazado_61" data-name="Trazado 61" d="M53.729,155.8c2.777-5.09,7.033-.824,9.686.473,5.315,2.6,6.179-.808,8.976.59,2.835,1.418,1.654,5.079-4.37,6.142C62.786,163.933,50.894,161,53.729,155.8Z" fill="#525c6f"/>
    </g>
  </g>
</svg>
